<svg preserveAspectRatio="none" overflow="visible" style="display: block;" width="17.99" height="17.99" viewBox="0 0 17.99 17.99" fill="none" xmlns="http://www.w3.org/2000/svg">
<g id="SVG" clip-path="url(#clip0_0_9)">
<path id="Vector" d="M5.2475 1.5H12.7425C14.8122 1.5 16.49 3.17781 16.49 5.2475V12.7425C16.49 14.8122 14.8122 16.49 12.7425 16.49H5.2475C3.17781 16.49 1.5 14.8122 1.5 12.7425V5.2475C1.5 3.17781 3.17781 1.5 5.2475 1.5Z" stroke="#7C7160" stroke-width="1.5" stroke-linecap="round" stroke-linejoin="round"/>
<path id="Vector_2" d="M12.03 8.64538C12.2317 10.0056 11.5384 11.3418 10.3101 11.96C9.08185 12.5782 7.59558 12.3391 6.62326 11.3667C5.65094 10.3944 5.41178 8.90815 6.03 7.67989C6.64822 6.45163 7.98443 5.7583 9.34462 5.96C10.7335 6.16595 11.824 7.25649 12.03 8.64538Z" stroke="#7C7160" stroke-width="1.5" stroke-linecap="round" stroke-linejoin="round"/>
<path id="Vector_3" d="M13.12 4.87H13.13" stroke="#7C7160" stroke-width="1.5" stroke-linecap="round" stroke-linejoin="round"/>
</g>
<defs>
<clipPath id="clip0_0_9">
<rect width="17.99" height="17.99" fill="white"/>
</clipPath>
</defs>
</svg>
